REM DIRINDEX 1\2\6,1\2\7,1\2\8,1\2\9,1\3\10,1\3\11,1\4\12,1\4\13,1\4\14,1\5\15,1\5\16,1\5\17
REM DIRNAME folder01,folder02,folder03,folder04,folder05,folder06,folder07,folder08,folder09,folder10,folder11,folder12,folder13,folder14,folder15,folder16,folder17
TITLE ""
FILE "1900_2_sec03_0247_0262.mp3" MP3
  TRACK 01 AUDIO
    TITLE "0:"
    INDEX 01 00:00:00
  TRACK 02 AUDIO
    TITLE "13:cjc020_2588"
    INDEX 01 00:00:17
  TRACK 03 AUDIO
    TITLE "0:"
    INDEX 01 00:01:30
  TRACK 04 AUDIO
    TITLE "14:cjc020_2589"
    INDEX 01 00:01:32
  TRACK 05 AUDIO
    TITLE "0:"
    INDEX 01 00:03:61
  TRACK 06 AUDIO
    TITLE "13:cjc020_2590"
    INDEX 01 00:04:42
  TRACK 07 AUDIO
    TITLE "0:"
    INDEX 01 00:05:65
  TRACK 08 AUDIO
    TITLE "14:cjc020_2591"
    INDEX 01 00:05:69
  TRACK 09 AUDIO
    TITLE "0:"
    INDEX 01 00:08:11
  TRACK 10 AUDIO
    TITLE "13:cjc020_2592"
    INDEX 01 00:08:68
  TRACK 11 AUDIO
    TITLE "0:"
    INDEX 01 00:10:27
  TRACK 12 AUDIO
    TITLE "14:cjc020_2593"
    INDEX 01 00:10:29
  TRACK 13 AUDIO
    TITLE "0:"
    INDEX 01 00:11:42
  TRACK 14 AUDIO
    TITLE "13:cjc020_2594"
    INDEX 01 00:12:24
  TRACK 15 AUDIO
    TITLE "0:"
    INDEX 01 00:13:24
  TRACK 16 AUDIO
    TITLE "14:cjc020_2595"
    INDEX 01 00:13:32
  TRACK 17 AUDIO
    TITLE "0:"
    INDEX 01 00:16:69
  TRACK 18 AUDIO
    TITLE "13:cjc020_2596"
    INDEX 01 00:17:51
  TRACK 19 AUDIO
    TITLE "0:"
    INDEX 01 00:18:64
  TRACK 20 AUDIO
    TITLE "14:cjc020_2597"
    INDEX 01 00:18:68
  TRACK 21 AUDIO
    TITLE "0:"
    INDEX 01 00:22:05
  TRACK 22 AUDIO
    TITLE "13:cjc020_2598"
    INDEX 01 00:22:58
  TRACK 23 AUDIO
    TITLE "0:"
    INDEX 01 00:23:67
  TRACK 24 AUDIO
    TITLE "14:cjc020_2599"
    INDEX 01 00:23:69
  TRACK 25 AUDIO
    TITLE "0:"
    INDEX 01 00:26:03
  TRACK 26 AUDIO
    TITLE "13:cjc020_2600"
    INDEX 01 00:26:60
  TRACK 27 AUDIO
    TITLE "0:"
    INDEX 01 00:27:67
  TRACK 28 AUDIO
    TITLE "14:cjc020_2601"
    INDEX 01 00:27:73
  TRACK 29 AUDIO
    TITLE "0:"
    INDEX 01 00:29:07
  TRACK 30 AUDIO
    TITLE "13:cjc020_2602"
    INDEX 01 00:29:60
  TRACK 31 AUDIO
    TITLE "0:"
    INDEX 01 00:31:06
  TRACK 32 AUDIO
    TITLE "14:cjc020_2603"
    INDEX 01 00:31:08
  TRACK 33 AUDIO
    TITLE "0:"
    INDEX 01 00:33:21
  TRACK 34 AUDIO
    TITLE "13:cjc020_2604"
    INDEX 01 00:33:73
  TRACK 35 AUDIO
    TITLE "0:"
    INDEX 01 00:35:04
  TRACK 36 AUDIO
    TITLE "14:cjc020_2605"
    INDEX 01 00:35:10
  TRACK 37 AUDIO
    TITLE "0:"
    INDEX 01 00:37:40
  TRACK 38 AUDIO
    TITLE "13:cjc020_2606"
    INDEX 01 00:38:22
  TRACK 39 AUDIO
    TITLE "0:"
    INDEX 01 00:39:41
  TRACK 40 AUDIO
    TITLE "14:cjc020_2607"
    INDEX 01 00:39:47
  TRACK 41 AUDIO
    TITLE "0:"
    INDEX 01 00:40:62
  TRACK 42 AUDIO
    TITLE "13:cjc020_2608"
    INDEX 01 00:41:44
  TRACK 43 AUDIO
    TITLE "0:"
    INDEX 01 00:42:57
  TRACK 44 AUDIO
    TITLE "14:cjc020_2609"
    INDEX 01 00:42:63
  TRACK 45 AUDIO
    TITLE "0:"
    INDEX 01 00:46:39
  TRACK 46 AUDIO
    TITLE "13:cjc020_2610"
    INDEX 01 00:47:19
  TRACK 47 AUDIO
    TITLE "0:"
    INDEX 01 00:48:51
  TRACK 48 AUDIO
    TITLE "14:cjc020_2611"
    INDEX 01 00:48:55
  TRACK 49 AUDIO
    TITLE "0:"
    INDEX 01 00:52:20
  TRACK 50 AUDIO
    TITLE "13:cjc020_2612"
    INDEX 01 00:52:73
  TRACK 51 AUDIO
    TITLE "0:"
    INDEX 01 00:53:74
  TRACK 52 AUDIO
    TITLE "14:cjc020_2613"
    INDEX 01 00:54:05
  TRACK 53 AUDIO
    TITLE "0:"
    INDEX 01 00:57:21
  TRACK 54 AUDIO
    TITLE "13:cjc020_2614"
    INDEX 01 00:58:01
  TRACK 55 AUDIO
    TITLE "0:"
    INDEX 01 00:59:12
  TRACK 56 AUDIO
    TITLE "14:cjc020_2615"
    INDEX 01 00:59:14
  TRACK 57 AUDIO
    TITLE "0:"
    INDEX 01 01:01:72
  TRACK 58 AUDIO
    TITLE "13:cjc020_2616"
    INDEX 01 01:02:54
  TRACK 59 AUDIO
    TITLE "0:"
    INDEX 01 01:03:67
  TRACK 60 AUDIO
    TITLE "14:cjc020_2617"
    INDEX 01 01:03:73
  TRACK 61 AUDIO
    TITLE "0:"
    INDEX 01 01:04:72
  TRACK 62 AUDIO
    TITLE "13:cjc020_2618"
    INDEX 01 01:05:50
  TRACK 63 AUDIO
    TITLE "0:"
    INDEX 01 01:06:49
  TRACK 64 AUDIO
    TITLE "14:cjc020_2619"
    INDEX 01 01:06:51
  TRACK 65 AUDIO
    TITLE "0:"
    INDEX 01 01:10:67
